<?xml version="1.0" encoding="UTF-8"?>
<svg width="48" height="48" viewBox="0 0 48 48" fill="none" xmlns="http://www.w3.org/2000/svg">
  <path d="M23.6258 8C34.2258 19.44 25.4258 25.9467 23.6258 27.2C25.4258 28.08 29.4258 32.24 24.8258 35.3333C30.6258 34.6667 33.8258 29.44 33.0258 26.96C39.2258 26.72 42.2258 32.8 42.0258 35.28C45.4258 34.4 47.4258 31.84 47.4258 29.4933C47.4258 24.88 40.4258 21.04 34.0258 21.04C27.0258 21.04 25.0258 23.1733 21.4258 23.1733C17.8258 23.1733 14.8258 21.04 14.8258 18.88C14.8258 16.72 17.0258 15.68 19.0258 15.68C21.0258 15.68 22.2258 16.24 23.4258 16.24C24.6258 16.24 25.0258 15.2 25.0258 14.64C25.0258 14.08 24.4258 13.76 23.8258 13.76C23.2258 13.76 21.0258 13.28 19.0258 13.28C15.0258 13.28 11.8258 15.44 11.8258 19.6C11.8258 23.76 17.6258 25.92 21.4258 25.92C23.4258 25.92 25.6258 25.2267 25.6258 25.2267C25.6258 25.2267 20.4258 30.4267 16.8258 30.4267C15.0258 30.4267 13.6258 29.4933 13.6258 27.84C13.6258 26.96 14.0258 26.32 14.2258 25.92C13.0258 25.84 6.4258 25.7733 6.4258 30.96C6.4258 35.28 13.0258 35.92 14.8258 35.92C18.2258 35.92 24.0258 32.56 25.8258 30.96C32.4258 31.04 35.4258 36.64 35.4258 39.68C39.0258 38.8 42.0258 36.24 42.0258 32.5067C42.0258 27.04 35.6258 24.5867 32.8258 24.5867C28.0258 24.5867 25.4258 26.5067 23.6258 27.2Z" fill="#5283A2"/>
</svg> 