<svg width="107" height="20" viewBox="0 0 107 20" fill="none" xmlns="http://www.w3.org/2000/svg">
<path d="M22.138 19.023H15.146V18.31L17.308 16.608V3.889L11.167 19.023H9.902L3.807 3.728V16.884L6.222 18.103L5.762 19.023H0.38V18.31L2.542 16.608V3.13L0.15 1.842L0.61 0.922H5.601L11.351 15.366L17.078 0.922H22.368V1.635L20.183 3.337V17.252L22.598 18.103L22.138 19.023Z" fill="#00FF84"/>
<path d="M32.86 19.046C32.2466 19.1687 31.5106 19.23 30.652 19.23C29.64 19.23 28.7276 18.9693 27.915 18.448C27.1176 17.9113 26.489 17.1907 26.029 16.286C25.5843 15.3813 25.362 14.3847 25.362 13.296C25.362 12.1153 25.7223 11.0113 26.443 9.984C27.1636 8.94133 28.0606 8.11333 29.134 7.5C30.2226 6.87133 31.273 6.557 32.285 6.557C33.7416 6.557 34.8686 7.132 35.666 8.282C36.4786 9.432 36.885 10.95 36.885 12.836H28.375C28.467 14.1393 28.8196 15.205 29.433 16.033C30.0616 16.861 30.9126 17.275 31.986 17.275C32.9826 17.275 34.401 16.5007 36.241 14.952L36.931 15.826L32.86 19.046ZM30.951 8.489C29.295 8.489 28.4286 9.62367 28.352 11.893H33.734C33.596 11.065 33.4503 10.4363 33.297 10.007C33.159 9.56233 32.906 9.202 32.538 8.926C32.1853 8.63467 31.6563 8.489 30.951 8.489ZM54.0333 19.023H49.6633V11.272C49.6633 10.4287 49.5329 9.83833 49.2723 9.501C49.0116 9.16367 48.5439 8.995 47.8693 8.995C47.3633 8.995 46.8573 9.087 46.3513 9.271C45.8606 9.455 45.2779 9.80767 44.6032 10.329V17.298L46.6733 18.103L46.2133 19.023H39.7963V18.31L41.8433 16.7V10.191L39.7963 8.995V8.282L43.7293 6.35L44.4883 9.34L47.7543 6.741C48.0763 6.61833 48.4979 6.557 49.0193 6.557C50.0619 6.557 50.8899 6.879 51.5033 7.523C52.1166 8.15167 52.4233 9.01033 52.4233 10.099V17.275L54.4933 18.103L54.0333 19.023ZM62.8825 19.046C62.5298 19.1687 62.1005 19.23 61.5945 19.23C60.3218 19.23 59.3865 18.9003 58.7885 18.241C58.2058 17.5663 57.9145 16.5313 57.9145 15.136V8.42H55.4305V7.477L59.8005 2.394H60.6745V7.477H64.8145V8.42H60.6745V15.412C60.6745 16.654 61.2725 17.275 62.4685 17.275C62.7905 17.275 63.0972 17.206 63.3885 17.068C63.6952 16.93 64.0708 16.6847 64.5155 16.332L65.2055 17.206L62.8825 19.046ZM73.8601 6.557C74.8721 6.557 75.7768 6.82533 76.5741 7.362C77.3868 7.88333 78.0155 8.59633 78.4601 9.501C78.9201 10.4057 79.1501 11.4023 79.1501 12.491C79.1501 13.6717 78.7898 14.7833 78.0691 15.826C77.3485 16.8533 76.4438 17.6813 75.3551 18.31C74.2818 18.9233 73.2391 19.23 72.2271 19.23C71.2151 19.23 70.3028 18.9693 69.4901 18.448C68.6928 17.9113 68.0641 17.1907 67.6041 16.286C67.1595 15.3813 66.9371 14.3847 66.9371 13.296C66.9371 12.1153 67.2975 11.0113 68.0181 9.984C68.7388 8.94133 69.6358 8.11333 70.7091 7.5C71.7978 6.87133 72.8481 6.557 73.8601 6.557ZM72.5261 8.489C70.7935 8.489 69.9271 9.72333 69.9271 12.192C69.9271 13.6487 70.2415 14.8677 70.8701 15.849C71.4988 16.815 72.3958 17.298 73.5611 17.298C75.2938 17.298 76.1601 16.056 76.1601 13.572C76.1601 12.1307 75.8458 10.927 75.2171 9.961C74.5885 8.97967 73.6915 8.489 72.5261 8.489ZM90.3258 6.58C90.8318 6.58 91.2765 6.718 91.6598 6.994C92.0431 7.27 92.3421 7.65333 92.5568 8.144L91.0388 10.053H90.1648C90.1035 9.66967 89.9885 9.40133 89.8198 9.248C89.6665 9.07933 89.4518 8.995 89.1758 8.995C88.8385 8.995 88.4781 9.087 88.0948 9.271C87.7268 9.43967 87.3051 9.76933 86.8298 10.26V17.114L90.0498 18.103L89.5898 19.023H82.0228V18.31L84.0698 16.7V10.191L82.0228 8.995V8.282L85.9558 6.35L86.6688 9.179L89.0608 6.741C89.3828 6.61833 89.8045 6.557 90.3258 6.557V6.58ZM105.708 19H101.338V16.999L98.739 19.046C98.4323 19.1687 98.049 19.23 97.589 19.23C96.2703 19.23 95.312 18.9003 94.714 18.241C94.1313 17.5817 93.84 16.792 93.84 15.872C93.84 15.32 94.0393 14.7757 94.438 14.239C94.8366 13.7023 95.404 13.1963 96.14 12.721H101.338V11.249C101.338 10.2523 101.07 9.547 100.533 9.133C100.012 8.719 99.291 8.512 98.371 8.512C97.4203 8.512 96.255 9.087 94.875 10.237L94.185 9.363L97.497 6.741C98.1103 6.61833 98.8463 6.557 99.705 6.557C101.1 6.557 102.181 6.902 102.948 7.592C103.715 8.26667 104.098 9.25567 104.098 10.559V17.275L106.168 18.08L105.708 19ZM98.325 17.275C99.2603 17.275 100.265 16.8457 101.338 15.987V13.664H97.267C97.0676 13.9093 96.922 14.1547 96.83 14.4C96.7533 14.6453 96.715 14.9137 96.715 15.205C96.715 15.7723 96.8606 16.263 97.152 16.677C97.4433 17.0757 97.8343 17.275 98.325 17.275Z" fill="black"/>
</svg>
