<?xml version="1.0" encoding="UTF-8"?>
<svg width="48" height="48" viewBox="0 0 48 48" fill="none" xmlns="http://www.w3.org/2000/svg">
  <circle cx="24" cy="24" r="24" fill="#4479A1" fill-opacity="0.2"/>
  <path d="M33.5823 30.8729V27.3876H33.564C32.5738 29.935 30.7526 30.8729 28.1321 30.8729C26.9832 30.8729 25.897 30.5521 25.0738 29.8925C23.9422 29.0183 23.4833 27.6721 23.4833 25.5345C23.4833 21.6346 25.542 19.4613 29.0456 19.4613C30.0724 19.4613 31.0809 19.6392 31.5398 19.9243V14.25H34.8683V30.8729H33.5823ZM27.1053 25.445C27.1053 27.2217 28.114 28.1775 29.6903 28.1775C31.3213 28.1775 32.3122 27.115 32.3122 25.4092C32.3122 23.7392 31.3395 22.6946 29.6722 22.6946C28.1501 22.6767 27.1053 23.6683 27.1053 25.445Z" fill="#4479A1"/>
  <path d="M14.9264 19.782H18.2549V28.5766C18.2549 30.0296 17.9421 30.5342 16.9332 30.8371H20.0775C19.0866 30.5342 18.7738 30.0117 18.7738 28.5766V24.9226C18.7738 22.6767 19.7829 21.4193 21.7066 21.4193C22.2012 21.4193 22.6782 21.4908 23.1008 21.6346V19.7462C22.7519 19.6392 22.3668 19.6213 21.9456 19.6213C20.3689 19.6213 19.3961 20.5233 18.7738 22.4271V19.7462L14.9264 19.782Z" fill="#4479A1"/>
  <path d="M11.5979 30.8729C12.5888 30.5521 12.9198 29.995 12.9198 28.487V22.1598C12.9198 20.505 13.1967 19.7998 14.0925 19.5683L11.25 19.6042C12.0914 19.8892 12.4041 20.505 12.4041 22.1777V28.5049C12.4041 30.0117 12.0914 30.5342 11.0823 30.855L11.5979 30.8729Z" fill="#4479A1"/>
  <path d="M12.1438 15.7813C12.1438 16.5937 12.8019 17.2534 13.6072 17.2534C14.4126 17.2534 15.0707 16.5937 15.0707 15.7813C15.0707 14.9689 14.4126 14.3092 13.6072 14.3092C12.8019 14.3092 12.1438 14.9689 12.1438 15.7813Z" fill="#4479A1"/>
</svg> 