<svg width="109" height="21" viewBox="0 0 109 21" fill="none" xmlns="http://www.w3.org/2000/svg">
<path d="M14.0301 20.0791H0.230098V19.3661L2.3921 17.6641V3.7261L9.76734e-05 2.9211L0.460098 2.0011H13.8001L15.0421 1.5871V6.8771L14.3521 7.1071L11.6151 3.0361H5.2671V10.3271H8.8781L10.5571 7.3831H11.2701V14.3751L10.3501 14.8351L8.9011 11.3621H5.2671V19.0441H11.5231L14.5821 14.5131L15.2721 14.7431V20.4931L14.0301 20.0791Z" fill="#00FF84"/>
<path d="M32.7395 20.0791H28.3695V18.4231L26.2305 20.1251C25.7399 20.2478 25.1495 20.3091 24.4595 20.3091C23.4475 20.3091 22.5352 20.0484 21.7225 19.5271C20.9252 18.9904 20.2965 18.2698 19.8365 17.3651C19.3919 16.4604 19.1695 15.4638 19.1695 14.3751C19.1695 13.1944 19.5299 12.0904 20.2505 11.0631C20.9712 10.0204 21.8682 9.19243 22.9415 8.5791C24.0302 7.95043 25.0805 7.6361 26.0925 7.6361C26.9359 7.6361 27.7025 7.87377 28.3925 8.3491V3.6111L26.3455 2.1851V1.4721L30.2785 0.00010097H31.1525V18.3541L33.1995 19.1591L32.7395 20.0791ZM25.6325 18.3541C26.0925 18.3541 26.5295 18.2928 26.9435 18.1701C27.3729 18.0321 27.8482 17.7791 28.3695 17.4111V12.1671C28.2775 11.4004 27.9172 10.7794 27.2885 10.3041C26.6752 9.81343 25.8319 9.5681 24.7585 9.5681C23.0259 9.5681 22.1595 10.8024 22.1595 13.2711C22.1595 14.7124 22.4585 15.9238 23.0565 16.9051C23.6545 17.8711 24.5132 18.3541 25.6325 18.3541ZM48.6113 20.0791H44.2413V17.6871L41.3203 20.1251C40.9983 20.2478 40.5767 20.3091 40.0553 20.3091C39.0127 20.3091 38.1846 19.9948 37.5713 19.3661C36.958 18.7221 36.6513 17.8558 36.6513 16.7671V11.2701L34.6043 10.0741V9.3611L38.5373 7.4291H39.4113V15.6171C39.4113 16.4604 39.5417 17.0508 39.8023 17.3881C40.063 17.7254 40.5307 17.8941 41.2053 17.8941C41.6807 17.8941 42.1483 17.8098 42.6083 17.6411C43.0683 17.4571 43.6127 17.1044 44.2413 16.5831V11.2701L42.1943 10.0741V9.3611L46.1273 7.4291H47.0013V18.3541L49.0713 19.1591L48.6113 20.0791ZM65.0613 20.0791H51.2613V19.3661L53.4233 17.6641V3.7261L51.0313 2.9211L51.4913 2.0011H58.4833V2.7141L56.2983 4.4161V19.0441H62.2323L65.6133 14.0531L66.3033 14.2831V20.4931L65.0613 20.0791ZM75.5995 20.0791H69.1825V19.3661L71.2295 17.7561V11.0401L69.1825 9.6141V8.9011L73.1155 7.4291H73.9895V18.3541L76.0595 19.1591L75.5995 20.0791ZM72.5175 0.529101C72.9775 0.529101 73.3531 0.697767 73.6445 1.0351C73.9511 1.37243 74.1045 1.7941 74.1045 2.3001C74.1045 2.65277 73.9971 2.9901 73.7825 3.3121C73.5678 3.61877 73.2995 3.8641 72.9775 4.0481C72.6555 4.2321 72.3411 4.3241 72.0345 4.3241C71.5745 4.3241 71.1911 4.15543 70.8845 3.8181C70.5931 3.48077 70.4475 3.0591 70.4475 2.5531C70.4475 2.20043 70.5548 1.87077 70.7695 1.5641C70.9841 1.2421 71.2525 0.989101 71.5745 0.8051C71.8965 0.621101 72.2108 0.529101 72.5175 0.529101ZM92.3589 20.1021H87.9889V12.3511C87.9889 11.5078 87.8586 10.9174 87.5979 10.5801C87.3373 10.2428 86.8696 10.0741 86.1949 10.0741C85.6889 10.0741 85.1829 10.1661 84.6769 10.3501C84.1863 10.5341 83.6036 10.8868 82.9289 11.4081V18.3771L84.9989 19.1821L84.5389 20.1021H78.1219V19.3891L80.1689 17.7791V11.2701L78.1219 10.0741V9.3611L82.0549 7.4291L82.8139 10.4191L86.0799 7.8201C86.4019 7.69743 86.8236 7.6361 87.3449 7.6361C88.3876 7.6361 89.2156 7.9581 89.8289 8.6021C90.4423 9.23077 90.7489 10.0894 90.7489 11.1781V18.3541L92.8189 19.1821L92.3589 20.1021ZM101.07 19.1591L100.61 20.0791H94.1932V19.3661L96.2402 17.7561V3.6111L94.1932 2.1851V1.4721L98.1262 0.00010097H99.0002V18.3541L101.07 19.1591ZM108.43 20.0791H104.543L100.219 14.0071L104.52 10.3961L102.312 8.7861L102.772 7.8661H108.269V8.5791L102.933 13.0641L106.82 18.3541L108.89 19.1591L108.43 20.0791Z" fill="black"/>
</svg>
