<svg width="116" height="21" viewBox="0 0 116 21" fill="none" xmlns="http://www.w3.org/2000/svg">
<path d="M24.15 20.025H16.55V19.25L18.9 17.4V3.575L12.225 20.025H10.85L4.225 3.4V17.7L6.85 19.025L6.35 20.025H0.5V19.25L2.85 17.4V2.75L0.25 1.35L0.75 0.35H6.175L12.425 16.05L18.65 0.35H24.4V1.125L22.025 2.975V18.1L24.65 19.025L24.15 20.025Z" fill="#198F51"/>
<path d="M35.8043 20.05C35.1376 20.1833 34.3376 20.25 33.4043 20.25C32.3043 20.25 31.3126 19.9667 30.4293 19.4C29.5626 18.8167 28.8793 18.0333 28.3793 17.05C27.896 16.0667 27.6543 14.9833 27.6543 13.8C27.6543 12.5167 28.046 11.3167 28.8293 10.2C29.6126 9.06667 30.5876 8.16667 31.7543 7.5C32.9376 6.81667 34.0793 6.475 35.1793 6.475C36.7626 6.475 37.9876 7.1 38.8543 8.35C39.7376 9.6 40.1793 11.25 40.1793 13.3H30.9293C31.0293 14.7167 31.4126 15.875 32.0793 16.775C32.7626 17.675 33.6876 18.125 34.8543 18.125C35.9376 18.125 37.4793 17.2833 39.4793 15.6L40.2293 16.55L35.8043 20.05ZM33.7293 8.575C31.9293 8.575 30.9876 9.80833 30.9043 12.275H36.7543C36.6043 11.375 36.446 10.6917 36.2793 10.225C36.1293 9.74167 35.8543 9.35 35.4543 9.05C35.071 8.73333 34.496 8.575 33.7293 8.575ZM58.8188 20.025H54.0688V11.6C54.0688 10.6833 53.9271 10.0417 53.6438 9.675C53.3604 9.30833 52.8521 9.125 52.1188 9.125C51.5688 9.125 51.0188 9.225 50.4688 9.425C49.9354 9.625 49.3021 10.0083 48.5687 10.575V18.15L50.8188 19.025L50.3188 20.025H43.3438V19.25L45.5688 17.5V10.425L43.3438 9.125V8.35L47.6188 6.25L48.4438 9.5L51.9938 6.675C52.3438 6.54167 52.8021 6.475 53.3688 6.475C54.5021 6.475 55.4021 6.825 56.0688 7.525C56.7354 8.20833 57.0688 9.14167 57.0688 10.325V18.125L59.3188 19.025L58.8188 20.025ZM68.4375 20.05C68.0542 20.1833 67.5875 20.25 67.0375 20.25C65.6542 20.25 64.6375 19.8917 63.9875 19.175C63.3542 18.4417 63.0375 17.3167 63.0375 15.8V8.5H60.3375V7.475L65.0875 1.95H66.0375V7.475H70.5375V8.5H66.0375V16.1C66.0375 17.45 66.6875 18.125 67.9875 18.125C68.3375 18.125 68.6708 18.05 68.9875 17.9C69.3208 17.75 69.7292 17.4833 70.2125 17.1L70.9625 18.05L68.4375 20.05ZM80.3697 6.475C81.4697 6.475 82.4531 6.76667 83.3197 7.35C84.2031 7.91667 84.8864 8.69167 85.3697 9.675C85.8697 10.6583 86.1197 11.7417 86.1197 12.925C86.1197 14.2083 85.7281 15.4167 84.9447 16.55C84.1614 17.6667 83.1781 18.5667 81.9947 19.25C80.8281 19.9167 79.6947 20.25 78.5947 20.25C77.4947 20.25 76.5031 19.9667 75.6197 19.4C74.7531 18.8167 74.0697 18.0333 73.5697 17.05C73.0864 16.0667 72.8447 14.9833 72.8447 13.8C72.8447 12.5167 73.2364 11.3167 74.0197 10.2C74.8031 9.06667 75.7781 8.16667 76.9447 7.5C78.1281 6.81667 79.2697 6.475 80.3697 6.475ZM78.9197 8.575C77.0364 8.575 76.0947 9.91667 76.0947 12.6C76.0947 14.1833 76.4364 15.5083 77.1197 16.575C77.8031 17.625 78.7781 18.15 80.0447 18.15C81.9281 18.15 82.8697 16.8 82.8697 14.1C82.8697 12.5333 82.5281 11.225 81.8447 10.175C81.1614 9.10833 80.1864 8.575 78.9197 8.575ZM98.2672 6.5C98.8172 6.5 99.3005 6.65 99.7172 6.95C100.134 7.25 100.459 7.66667 100.692 8.2L99.0422 10.275H98.0922C98.0255 9.85833 97.9005 9.56667 97.7172 9.4C97.5505 9.21667 97.3172 9.125 97.0172 9.125C96.6505 9.125 96.2589 9.225 95.8422 9.425C95.4422 9.60833 94.9839 9.96667 94.4672 10.5V17.95L97.9672 19.025L97.4672 20.025H89.2422V19.25L91.4672 17.5V10.425L89.2422 9.125V8.35L93.5172 6.25L94.2922 9.325L96.8922 6.675C97.2422 6.54167 97.7005 6.475 98.2672 6.475V6.5ZM114.987 20H110.237V17.825L107.412 20.05C107.079 20.1833 106.662 20.25 106.162 20.25C104.729 20.25 103.687 19.8917 103.037 19.175C102.404 18.4583 102.087 17.6 102.087 16.6C102.087 16 102.304 15.4083 102.737 14.825C103.17 14.2417 103.787 13.6917 104.587 13.175H110.237V11.575C110.237 10.4917 109.945 9.725 109.362 9.275C108.795 8.825 108.012 8.6 107.012 8.6C105.979 8.6 104.712 9.225 103.212 10.475L102.462 9.525L106.062 6.675C106.729 6.54167 107.529 6.475 108.462 6.475C109.979 6.475 111.154 6.85 111.987 7.6C112.82 8.33333 113.237 9.40833 113.237 10.825V18.125L115.487 19L114.987 20ZM106.962 18.125C107.979 18.125 109.07 17.6583 110.237 16.725V14.2H105.812C105.595 14.4667 105.437 14.7333 105.337 15C105.254 15.2667 105.212 15.5583 105.212 15.875C105.212 16.4917 105.37 17.025 105.687 17.475C106.004 17.9083 106.429 18.125 106.962 18.125Z" fill="white"/>
</svg>
